<?xml version="1.0" encoding="UTF-8"?><svg xmlns="http://www.w3.org/2000/svg" viewBox="0 0 49.14 41.37"><defs><style>.d{fill:none;stroke:#000;stroke-miterlimit:10;stroke-width:.25px;}</style></defs><g id="a"/><g id="b"><g id="c"><g><path d="M.94,9.69l-.06-8.57H2.96l-.11,4.02c-.02,.34-.03,.67-.05,.99-.02,.32-.04,.6-.07,.83h.04c.09-.25,.19-.52,.3-.82s.23-.58,.35-.85L5.2,1.12h1.85l-.05,4.25c0,.24-.02,.51-.02,.8,0,.3-.02,.58-.05,.85h.04c.08-.27,.18-.59,.31-.96,.13-.37,.26-.71,.38-1.03l1.51-3.91h2.17l-3.55,8.57h-2.54v-3.19c.01-.26,.02-.53,.04-.82,.02-.29,.04-.57,.06-.85h-.04c-.1,.3-.21,.59-.31,.88s-.22,.58-.35,.86l-1.27,3.12H.94Z"/><path d="M12.12,9.81c-.48,0-.88-.18-1.21-.55-.33-.37-.49-.96-.49-1.78,0-.33,.04-.69,.11-1.1,.07-.4,.18-.81,.33-1.21,.15-.4,.33-.78,.56-1.12,.22-.34,.49-.61,.79-.82,.3-.2,.65-.31,1.04-.31,.33,0,.61,.08,.84,.23,.23,.16,.42,.39,.58,.69h.04l.31-.8h1.76l-1.4,6.64h-1.73l.02-.74h-.05c-.18,.26-.39,.46-.62,.62-.23,.16-.52,.24-.88,.24Zm.9-1.75c.18,0,.33-.08,.47-.25,.14-.17,.25-.38,.35-.64,.1-.26,.17-.51,.22-.77,.05-.22,.08-.4,.1-.54,.02-.14,.02-.28,.02-.4,0-.24-.04-.43-.11-.56-.07-.14-.18-.2-.34-.2s-.3,.08-.43,.25c-.14,.17-.25,.38-.35,.65-.1,.26-.18,.55-.24,.85-.06,.3-.09,.58-.09,.83,0,.52,.14,.78,.41,.78Z"/><path d="M16.82,9.69l1.42-6.64h1.7l-.05,.86h.04c.41-.66,.97-.98,1.68-.98,.52,0,.92,.16,1.21,.47,.29,.32,.43,.75,.43,1.29,0,.18-.01,.38-.04,.58-.02,.2-.06,.41-.1,.62l-.8,3.79h-2.14l.76-3.65c.03-.13,.06-.27,.08-.43,.02-.16,.04-.3,.04-.43,0-.31-.13-.47-.4-.47-.22,0-.41,.14-.58,.43s-.31,.7-.42,1.24l-.7,3.31h-2.15Z"/><path d="M25.73,12.57c-.46,0-.85-.04-1.18-.11-.33-.07-.62-.16-.89-.28v-1.8c.27,.15,.59,.27,.94,.37,.36,.09,.71,.14,1.06,.14s.61-.08,.81-.25c.2-.17,.33-.39,.39-.66l.06-.24c.02-.1,.04-.2,.07-.32,.03-.12,.07-.23,.11-.34h-.05c-.18,.22-.37,.4-.58,.52-.21,.12-.49,.18-.82,.18-.46,0-.85-.18-1.15-.53s-.45-.92-.45-1.72c0-.34,.04-.71,.11-1.12,.07-.41,.18-.82,.33-1.22,.15-.41,.34-.78,.56-1.12,.23-.34,.5-.61,.8-.82,.31-.21,.66-.31,1.05-.31,.36,0,.64,.07,.84,.22,.2,.15,.39,.38,.56,.7h.04l.3-.8h1.76l-1.45,6.86c-.14,.66-.37,1.19-.68,1.57-.31,.38-.68,.66-1.12,.83-.44,.17-.92,.25-1.45,.25Zm.95-4.52c.18,0,.33-.09,.47-.28s.26-.42,.36-.7c.1-.28,.18-.57,.23-.86s.08-.56,.08-.79c0-.22-.04-.39-.11-.52-.07-.13-.18-.2-.34-.2-.16,0-.31,.09-.44,.26-.14,.18-.25,.4-.35,.67-.1,.27-.18,.55-.23,.85-.06,.29-.08,.55-.08,.79,0,.52,.14,.78,.42,.78Z"/><path d="M0,24.09L1.81,15.52h2.27c1,0,1.78,.26,2.34,.79,.56,.53,.84,1.28,.84,2.26,0,.77-.1,1.49-.31,2.15-.2,.67-.5,1.25-.9,1.76-.4,.5-.89,.9-1.47,1.18-.58,.28-1.26,.43-2.03,.43H0Zm2.58-1.85h.31c.34,0,.65-.1,.91-.31,.26-.2,.49-.48,.67-.82,.18-.34,.32-.72,.41-1.13s.14-.84,.14-1.26c0-.46-.09-.8-.28-1.03s-.45-.34-.79-.34h-.34l-1.03,4.88Z"/><path d="M10.27,24.21c-.76,0-1.35-.22-1.76-.65-.42-.43-.62-1.04-.62-1.81,0-.52,.07-1.04,.22-1.56,.14-.52,.36-1,.65-1.43,.29-.43,.66-.78,1.11-1.04,.45-.26,.98-.39,1.59-.39,.75,0,1.34,.22,1.75,.65s.62,1.04,.62,1.81c0,.53-.07,1.05-.22,1.58-.14,.52-.36,1-.66,1.43-.3,.43-.67,.77-1.11,1.03-.44,.26-.97,.38-1.57,.38Zm.24-1.67c.16,0,.31-.09,.45-.26,.14-.18,.26-.41,.37-.69,.1-.28,.18-.59,.24-.91,.06-.32,.08-.63,.08-.93,0-.5-.16-.74-.47-.74-.17,0-.32,.09-.46,.26-.14,.18-.25,.41-.35,.69-.1,.28-.18,.59-.23,.91-.06,.32-.08,.63-.08,.93,0,.5,.15,.74,.46,.74Z"/><path d="M15.24,24.09l-.06-8.57h2.09l-.11,4.02c-.02,.34-.03,.67-.05,.99-.02,.32-.04,.6-.07,.83h.04c.09-.25,.19-.52,.3-.82s.23-.58,.35-.85l1.78-4.18h1.85l-.05,4.25c0,.24-.02,.51-.02,.8,0,.3-.02,.58-.05,.85h.04c.08-.27,.18-.59,.31-.96,.13-.37,.26-.71,.38-1.03l1.51-3.91h2.17l-3.55,8.57h-2.54v-3.19c.01-.26,.02-.53,.04-.82,.02-.29,.04-.57,.06-.85h-.04c-.1,.3-.21,.59-.31,.88s-.22,.58-.35,.86l-1.27,3.12h-2.44Z"/><path d="M27.13,24.21c-.76,0-1.35-.22-1.76-.65-.42-.43-.62-1.04-.62-1.81,0-.52,.07-1.04,.22-1.56,.14-.52,.36-1,.65-1.43,.29-.43,.66-.78,1.11-1.04,.45-.26,.98-.39,1.59-.39,.75,0,1.34,.22,1.75,.65s.62,1.04,.62,1.81c0,.53-.07,1.05-.22,1.58-.14,.52-.36,1-.66,1.43-.3,.43-.67,.77-1.11,1.03-.44,.26-.97,.38-1.57,.38Zm.24-1.67c.16,0,.31-.09,.45-.26,.14-.18,.26-.41,.37-.69,.1-.28,.18-.59,.24-.91,.06-.32,.08-.63,.08-.93,0-.5-.16-.74-.47-.74-.17,0-.32,.09-.46,.26-.14,.18-.25,.41-.35,.69-.1,.28-.18,.59-.23,.91-.06,.32-.08,.63-.08,.93,0,.5,.15,.74,.46,.74Z"/><path d="M31.09,24.09l1.42-6.64h1.7l-.05,.86h.04c.41-.66,.97-.98,1.68-.98,.52,0,.92,.16,1.21,.47,.29,.32,.43,.75,.43,1.29,0,.18-.01,.38-.04,.58-.02,.2-.06,.41-.1,.62l-.8,3.79h-2.14l.76-3.65c.03-.13,.06-.27,.08-.43,.02-.16,.04-.3,.04-.43,0-.31-.13-.47-.4-.47-.22,0-.41,.14-.58,.43s-.31,.7-.42,1.24l-.7,3.31h-2.15Z"/><path d="M0,38.49l1.81-8.57H3.97c.68,0,1.23,.1,1.64,.31s.71,.49,.91,.85c.19,.36,.29,.76,.29,1.21,0,.64-.14,1.21-.42,1.72-.28,.5-.68,.9-1.21,1.19-.52,.29-1.16,.44-1.9,.44h-.49l-.6,2.84H0Zm3.17-4.67h.29c.35,0,.63-.13,.83-.39,.2-.26,.31-.59,.31-.99,0-.21-.06-.38-.17-.5-.12-.13-.3-.19-.55-.19h-.25l-.46,2.08Z"/><path d="M9.54,38.61c-.76,0-1.35-.22-1.76-.65-.42-.43-.62-1.04-.62-1.81,0-.52,.07-1.04,.22-1.56,.14-.52,.36-1,.65-1.43,.29-.43,.66-.78,1.11-1.04,.45-.26,.98-.39,1.59-.39,.75,0,1.34,.22,1.75,.65s.62,1.04,.62,1.81c0,.53-.07,1.05-.22,1.58-.14,.52-.36,1-.66,1.43-.3,.43-.67,.77-1.11,1.03-.44,.26-.97,.38-1.57,.38Zm.24-1.67c.16,0,.31-.09,.45-.26,.14-.18,.26-.41,.37-.69,.1-.28,.18-.59,.24-.91,.06-.32,.08-.63,.08-.93,0-.5-.16-.74-.47-.74-.17,0-.32,.09-.46,.26-.14,.18-.25,.41-.35,.69-.1,.28-.18,.59-.23,.91-.06,.32-.08,.63-.08,.93,0,.5,.15,.74,.46,.74Z"/><path d="M13.51,38.49l1.4-6.64h1.69l-.07,1.06h.05c.25-.44,.51-.75,.79-.92,.28-.17,.62-.26,1.03-.26,.18,0,.34,.02,.5,.06l-.54,2.2c-.18-.08-.41-.12-.67-.12-.34,0-.63,.12-.87,.37s-.41,.64-.52,1.18l-.65,3.07h-2.14Z"/><path d="M20.56,38.61c-.56,0-.97-.13-1.24-.4-.26-.27-.4-.66-.4-1.18,0-.15,.01-.32,.04-.52,.03-.19,.06-.38,.1-.56l.5-2.42h-.79l.23-1.08,1.14-.52,.76-1.4h1.45l-.29,1.33h1.49l-.36,1.67h-1.49l-.53,2.46c-.02,.09-.03,.18-.05,.27-.02,.09-.02,.17-.02,.22,0,.24,.12,.36,.35,.36,.26,0,.58-.08,.95-.24v1.64c-.5,.25-1.11,.37-1.85,.37Z"/><path d="M23.16,41.37c-.18,0-.37-.01-.57-.04-.2-.02-.37-.06-.52-.11v-1.74c.1,.03,.21,.06,.33,.08,.12,.02,.23,.03,.33,.03,.27,0,.47-.07,.59-.2s.21-.32,.26-.55l1.13-5.32h-.85l.23-1.08,.98-.55,.1-.42c.14-.63,.38-1.15,.74-1.55,.36-.4,.89-.61,1.6-.61,.28,0,.56,.03,.83,.09,.28,.06,.52,.14,.74,.25l-.6,1.51c-.22-.12-.44-.18-.66-.18-.14,0-.26,.04-.34,.13-.08,.09-.14,.2-.17,.32l-.1,.42h1.14l-.36,1.67h-1.13l-1.2,5.6c-.1,.46-.24,.85-.43,1.19-.19,.34-.46,.6-.79,.78-.33,.18-.76,.28-1.28,.28Z"/><path d="M30.59,38.61c-.76,0-1.35-.22-1.76-.65-.42-.43-.62-1.04-.62-1.81,0-.52,.07-1.04,.22-1.56,.14-.52,.36-1,.65-1.43,.29-.43,.66-.78,1.11-1.04,.45-.26,.98-.39,1.59-.39,.75,0,1.34,.22,1.75,.65s.62,1.04,.62,1.81c0,.53-.07,1.05-.22,1.58-.14,.52-.36,1-.66,1.43-.3,.43-.67,.77-1.11,1.03-.44,.26-.97,.38-1.57,.38Zm.24-1.67c.16,0,.31-.09,.45-.26,.14-.18,.26-.41,.37-.69,.1-.28,.18-.59,.24-.91,.06-.32,.08-.63,.08-.93,0-.5-.16-.74-.47-.74-.17,0-.32,.09-.46,.26-.14,.18-.25,.41-.35,.69-.1,.28-.18,.59-.23,.91-.06,.32-.08,.63-.08,.93,0,.5,.15,.74,.46,.74Z"/><path d="M34.55,38.49l1.94-9.12h2.14l-1.93,9.12h-2.15Z"/><path d="M38.14,38.49l1.4-6.64h2.15l-1.42,6.64h-2.14Zm2.7-7.27c-.3,0-.55-.06-.74-.19-.19-.12-.29-.33-.29-.61,0-.36,.11-.66,.32-.9,.22-.24,.54-.36,.96-.36,.3,0,.54,.06,.74,.19,.2,.12,.29,.33,.29,.61,0,.37-.11,.67-.33,.91-.22,.24-.54,.35-.95,.35Z"/><path d="M44.46,38.61c-.76,0-1.35-.22-1.76-.65-.42-.43-.62-1.04-.62-1.81,0-.52,.07-1.04,.22-1.56,.14-.52,.36-1,.65-1.43,.29-.43,.66-.78,1.11-1.04,.45-.26,.98-.39,1.59-.39,.75,0,1.34,.22,1.75,.65s.62,1.04,.62,1.81c0,.53-.07,1.05-.22,1.58-.14,.52-.36,1-.66,1.43-.3,.43-.67,.77-1.11,1.03-.44,.26-.97,.38-1.57,.38Zm.24-1.67c.16,0,.31-.09,.45-.26,.14-.18,.26-.41,.37-.69,.1-.28,.18-.59,.24-.91,.06-.32,.08-.63,.08-.93,0-.5-.16-.74-.47-.74-.17,0-.32,.09-.46,.26-.14,.18-.25,.41-.35,.69-.1,.28-.18,.59-.23,.91-.06,.32-.08,.63-.08,.93,0,.5,.15,.74,.46,.74Z"/></g><g><path class="d" d="M1.94,8.69L1.88,.12H3.96l-.11,4.02c-.02,.34-.03,.67-.05,.99-.02,.32-.04,.6-.07,.83h.04c.09-.25,.19-.52,.3-.82s.23-.58,.35-.85L6.2,.12h1.85l-.05,4.25c0,.24-.02,.51-.02,.8,0,.3-.02,.58-.05,.85h.04c.08-.27,.18-.59,.31-.96,.13-.37,.26-.71,.38-1.03L10.17,.12h2.17l-3.55,8.57h-2.54v-3.19c.01-.26,.02-.53,.04-.82,.02-.29,.04-.57,.06-.85h-.04c-.1,.3-.21,.59-.31,.88s-.22,.58-.35,.86l-1.27,3.12H1.94Z"/><path class="d" d="M13.12,8.81c-.48,0-.88-.18-1.21-.55-.33-.37-.49-.96-.49-1.78,0-.33,.04-.69,.11-1.1,.07-.4,.18-.81,.33-1.21,.15-.4,.33-.78,.56-1.12,.22-.34,.49-.61,.79-.82,.3-.2,.65-.31,1.04-.31,.33,0,.61,.08,.84,.23,.23,.16,.42,.39,.58,.69h.04l.31-.8h1.76l-1.4,6.64h-1.73l.02-.74h-.05c-.18,.26-.39,.46-.62,.62-.23,.16-.52,.24-.88,.24Zm.9-1.75c.18,0,.33-.08,.47-.25,.14-.17,.25-.38,.35-.64,.1-.26,.17-.51,.22-.77,.05-.22,.08-.4,.1-.54,.02-.14,.02-.28,.02-.4,0-.24-.04-.43-.11-.56-.07-.14-.18-.2-.34-.2s-.3,.08-.43,.25c-.14,.17-.25,.38-.35,.65-.1,.26-.18,.55-.24,.85-.06,.3-.09,.58-.09,.83,0,.52,.14,.78,.41,.78Z"/><path class="d" d="M17.82,8.69l1.42-6.64h1.7l-.05,.86h.04c.41-.66,.97-.98,1.68-.98,.52,0,.92,.16,1.21,.47,.29,.32,.43,.75,.43,1.29,0,.18-.01,.38-.04,.58-.02,.2-.06,.41-.1,.62l-.8,3.79h-2.14l.76-3.65c.03-.13,.06-.27,.08-.43,.02-.16,.04-.3,.04-.43,0-.31-.13-.47-.4-.47-.22,0-.41,.14-.58,.43s-.31,.7-.42,1.24l-.7,3.31h-2.15Z"/><path class="d" d="M26.73,11.57c-.46,0-.85-.04-1.18-.11-.33-.07-.62-.16-.89-.28v-1.8c.27,.15,.59,.27,.94,.37,.36,.09,.71,.14,1.06,.14s.61-.08,.81-.25c.2-.17,.33-.39,.39-.66l.06-.24c.02-.1,.04-.2,.07-.32,.03-.12,.07-.23,.11-.34h-.05c-.18,.22-.37,.4-.58,.52-.21,.12-.49,.18-.82,.18-.46,0-.85-.18-1.15-.53s-.45-.92-.45-1.72c0-.34,.04-.71,.11-1.12,.07-.41,.18-.82,.33-1.22,.15-.41,.34-.78,.56-1.12,.23-.34,.5-.61,.8-.82,.31-.21,.66-.31,1.05-.31,.36,0,.64,.07,.84,.22,.2,.15,.39,.38,.56,.7h.04l.3-.8h1.76l-1.45,6.86c-.14,.66-.37,1.19-.68,1.57-.31,.38-.68,.66-1.12,.83-.44,.17-.92,.25-1.45,.25Zm.95-4.52c.18,0,.33-.09,.47-.28s.26-.42,.36-.7c.1-.28,.18-.57,.23-.86s.08-.56,.08-.79c0-.22-.04-.39-.11-.52-.07-.13-.18-.2-.34-.2-.16,0-.31,.09-.44,.26-.14,.18-.25,.4-.35,.67-.1,.27-.18,.55-.23,.85-.06,.29-.08,.55-.08,.79,0,.52,.14,.78,.42,.78Z"/><path class="d" d="M1,23.09l1.81-8.57h2.27c1,0,1.78,.26,2.34,.79,.56,.53,.84,1.28,.84,2.26,0,.77-.1,1.49-.31,2.15-.2,.67-.5,1.25-.9,1.76-.4,.5-.89,.9-1.47,1.18-.58,.28-1.26,.43-2.03,.43H1Zm2.58-1.85h.31c.34,0,.65-.1,.91-.31,.26-.2,.49-.48,.67-.82,.18-.34,.32-.72,.41-1.13s.14-.84,.14-1.26c0-.46-.09-.8-.28-1.03s-.45-.34-.79-.34h-.34l-1.03,4.88Z"/><path class="d" d="M11.27,23.21c-.76,0-1.35-.22-1.76-.65-.42-.43-.62-1.04-.62-1.81,0-.52,.07-1.04,.22-1.56,.14-.52,.36-1,.65-1.43,.29-.43,.66-.78,1.11-1.04,.45-.26,.98-.39,1.59-.39,.75,0,1.34,.22,1.75,.65s.62,1.04,.62,1.81c0,.53-.07,1.05-.22,1.58-.14,.52-.36,1-.66,1.43-.3,.43-.67,.77-1.11,1.03-.44,.26-.97,.38-1.57,.38Zm.24-1.67c.16,0,.31-.09,.45-.26,.14-.18,.26-.41,.37-.69,.1-.28,.18-.59,.24-.91,.06-.32,.08-.63,.08-.93,0-.5-.16-.74-.47-.74-.17,0-.32,.09-.46,.26-.14,.18-.25,.41-.35,.69-.1,.28-.18,.59-.23,.91-.06,.32-.08,.63-.08,.93,0,.5,.15,.74,.46,.74Z"/><path class="d" d="M16.24,23.09l-.06-8.57h2.09l-.11,4.02c-.02,.34-.03,.67-.05,.99-.02,.32-.04,.6-.07,.83h.04c.09-.25,.19-.52,.3-.82s.23-.58,.35-.85l1.78-4.18h1.85l-.05,4.25c0,.24-.02,.51-.02,.8,0,.3-.02,.58-.05,.85h.04c.08-.27,.18-.59,.31-.96,.13-.37,.26-.71,.38-1.03l1.51-3.91h2.17l-3.55,8.57h-2.54v-3.19c.01-.26,.02-.53,.04-.82,.02-.29,.04-.57,.06-.85h-.04c-.1,.3-.21,.59-.31,.88s-.22,.58-.35,.86l-1.27,3.12h-2.44Z"/><path class="d" d="M28.13,23.21c-.76,0-1.35-.22-1.76-.65-.42-.43-.62-1.04-.62-1.81,0-.52,.07-1.04,.22-1.56,.14-.52,.36-1,.65-1.43,.29-.43,.66-.78,1.11-1.04,.45-.26,.98-.39,1.59-.39,.75,0,1.34,.22,1.75,.65s.62,1.04,.62,1.81c0,.53-.07,1.05-.22,1.58-.14,.52-.36,1-.66,1.43-.3,.43-.67,.77-1.11,1.03-.44,.26-.97,.38-1.57,.38Zm.24-1.67c.16,0,.31-.09,.45-.26,.14-.18,.26-.41,.37-.69,.1-.28,.18-.59,.24-.91,.06-.32,.08-.63,.08-.93,0-.5-.16-.74-.47-.74-.17,0-.32,.09-.46,.26-.14,.18-.25,.41-.35,.69-.1,.28-.18,.59-.23,.91-.06,.32-.08,.63-.08,.93,0,.5,.15,.74,.46,.74Z"/><path class="d" d="M32.09,23.09l1.42-6.64h1.7l-.05,.86h.04c.41-.66,.97-.98,1.68-.98,.52,0,.92,.16,1.21,.47,.29,.32,.43,.75,.43,1.29,0,.18-.01,.38-.04,.58-.02,.2-.06,.41-.1,.62l-.8,3.79h-2.14l.76-3.65c.03-.13,.06-.27,.08-.43,.02-.16,.04-.3,.04-.43,0-.31-.13-.47-.4-.47-.22,0-.41,.14-.58,.43s-.31,.7-.42,1.24l-.7,3.31h-2.15Z"/><path class="d" d="M1,37.49l1.81-8.57h2.16c.68,0,1.23,.1,1.64,.31s.71,.49,.91,.85c.19,.36,.29,.76,.29,1.21,0,.64-.14,1.21-.42,1.72-.28,.5-.68,.9-1.21,1.19-.52,.29-1.16,.44-1.9,.44h-.49l-.6,2.84H1Zm3.17-4.67h.29c.35,0,.63-.13,.83-.39,.2-.26,.31-.59,.31-.99,0-.21-.06-.38-.17-.5-.12-.13-.3-.19-.55-.19h-.25l-.46,2.08Z"/><path class="d" d="M10.54,37.61c-.76,0-1.35-.22-1.76-.65-.42-.43-.62-1.04-.62-1.81,0-.52,.07-1.04,.22-1.56,.14-.52,.36-1,.65-1.43,.29-.43,.66-.78,1.11-1.04,.45-.26,.98-.39,1.59-.39,.75,0,1.34,.22,1.75,.65s.62,1.04,.62,1.81c0,.53-.07,1.05-.22,1.58-.14,.52-.36,1-.66,1.43-.3,.43-.67,.77-1.11,1.03-.44,.26-.97,.38-1.57,.38Zm.24-1.67c.16,0,.31-.09,.45-.26,.14-.18,.26-.41,.37-.69,.1-.28,.18-.59,.24-.91,.06-.32,.08-.63,.08-.93,0-.5-.16-.74-.47-.74-.17,0-.32,.09-.46,.26-.14,.18-.25,.41-.35,.69-.1,.28-.18,.59-.23,.91-.06,.32-.08,.63-.08,.93,0,.5,.15,.74,.46,.74Z"/><path class="d" d="M14.51,37.49l1.4-6.64h1.69l-.07,1.06h.05c.25-.44,.51-.75,.79-.92,.28-.17,.62-.26,1.03-.26,.18,0,.34,.02,.5,.06l-.54,2.2c-.18-.08-.41-.12-.67-.12-.34,0-.63,.12-.87,.37s-.41,.64-.52,1.18l-.65,3.07h-2.14Z"/><path class="d" d="M21.56,37.61c-.56,0-.97-.13-1.24-.4-.26-.27-.4-.66-.4-1.18,0-.15,.01-.32,.04-.52,.03-.19,.06-.38,.1-.56l.5-2.42h-.79l.23-1.08,1.14-.52,.76-1.4h1.45l-.29,1.33h1.49l-.36,1.67h-1.49l-.53,2.46c-.02,.09-.03,.18-.05,.27-.02,.09-.02,.17-.02,.22,0,.24,.12,.36,.35,.36,.26,0,.58-.08,.95-.24v1.64c-.5,.25-1.11,.37-1.85,.37Z"/><path class="d" d="M24.16,40.37c-.18,0-.37-.01-.57-.04-.2-.02-.37-.06-.52-.11v-1.74c.1,.03,.21,.06,.33,.08,.12,.02,.23,.03,.33,.03,.27,0,.47-.07,.59-.2s.21-.32,.26-.55l1.13-5.32h-.85l.23-1.08,.98-.55,.1-.42c.14-.63,.38-1.15,.74-1.55,.36-.4,.89-.61,1.6-.61,.28,0,.56,.03,.83,.09,.28,.06,.52,.14,.74,.25l-.6,1.51c-.22-.12-.44-.18-.66-.18-.14,0-.26,.04-.34,.13-.08,.09-.14,.2-.17,.32l-.1,.42h1.14l-.36,1.67h-1.13l-1.2,5.6c-.1,.46-.24,.85-.43,1.19-.19,.34-.46,.6-.79,.78-.33,.18-.76,.28-1.28,.28Z"/><path class="d" d="M31.59,37.61c-.76,0-1.35-.22-1.76-.65-.42-.43-.62-1.04-.62-1.81,0-.52,.07-1.04,.22-1.56,.14-.52,.36-1,.65-1.43,.29-.43,.66-.78,1.11-1.04,.45-.26,.98-.39,1.59-.39,.75,0,1.34,.22,1.75,.65s.62,1.04,.62,1.81c0,.53-.07,1.05-.22,1.58-.14,.52-.36,1-.66,1.43-.3,.43-.67,.77-1.11,1.03-.44,.26-.97,.38-1.57,.38Zm.24-1.67c.16,0,.31-.09,.45-.26,.14-.18,.26-.41,.37-.69,.1-.28,.18-.59,.24-.91,.06-.32,.08-.63,.08-.93,0-.5-.16-.74-.47-.74-.17,0-.32,.09-.46,.26-.14,.18-.25,.41-.35,.69-.1,.28-.18,.59-.23,.91-.06,.32-.08,.63-.08,.93,0,.5,.15,.74,.46,.74Z"/><path class="d" d="M35.55,37.49l1.94-9.12h2.14l-1.93,9.12h-2.15Z"/><path class="d" d="M39.14,37.49l1.4-6.64h2.15l-1.42,6.64h-2.14Zm2.7-7.27c-.3,0-.55-.06-.74-.19-.19-.12-.29-.33-.29-.61,0-.36,.11-.66,.32-.9,.22-.24,.54-.36,.96-.36,.3,0,.54,.06,.74,.19,.2,.12,.29,.33,.29,.61,0,.37-.11,.67-.33,.91-.22,.24-.54,.35-.95,.35Z"/><path class="d" d="M45.46,37.61c-.76,0-1.35-.22-1.76-.65-.42-.43-.62-1.04-.62-1.81,0-.52,.07-1.04,.22-1.56,.14-.52,.36-1,.65-1.43,.29-.43,.66-.78,1.11-1.04,.45-.26,.98-.39,1.59-.39,.75,0,1.34,.22,1.75,.65s.62,1.04,.62,1.81c0,.53-.07,1.05-.22,1.58-.14,.52-.36,1-.66,1.43-.3,.43-.67,.77-1.11,1.03-.44,.26-.97,.38-1.57,.38Zm.24-1.67c.16,0,.31-.09,.45-.26,.14-.18,.26-.41,.37-.69,.1-.28,.18-.59,.24-.91,.06-.32,.08-.63,.08-.93,0-.5-.16-.74-.47-.74-.17,0-.32,.09-.46,.26-.14,.18-.25,.41-.35,.69-.1,.28-.18,.59-.23,.91-.06,.32-.08,.63-.08,.93,0,.5,.15,.74,.46,.74Z"/></g></g></g></svg>